<svg width="37" height="37" viewBox="0 0 37 37" fill="none" xmlns="http://www.w3.org/2000/svg">
<path d="M18.6192 0.36792L21.5299 5.93536L26.5679 2.18216L26.7747 8.46114L32.9423 7.26554L30.4042 13.0124L36.4798 14.6112L31.6996 18.6878L36.4798 22.7644L30.4042 24.3632L32.9423 30.1101L26.7747 28.9145L26.5679 35.1934L21.5299 31.4402L18.6192 37.0077L15.7085 31.4402L10.6705 35.1934L10.4637 28.9145L4.29614 30.1101L6.83417 24.3632L0.758635 22.7644L5.5388 18.6878L0.758635 14.6112L6.83417 13.0124L4.29614 7.26554L10.4637 8.46114L10.6705 2.18216L15.7085 5.93536L18.6192 0.36792Z" fill="#5171FC"/>
<path d="M13.231 20.1231L15.9454 23.078C16.5822 23.7713 17.5058 23.6685 18.0514 22.8436L24.0074 13.8384" stroke="white" stroke-width="1.70477" stroke-linecap="round" stroke-linejoin="round"/>
</svg>
