<svg width="38" height="37" viewBox="0 0 38 37" fill="none" xmlns="http://www.w3.org/2000/svg">
<path d="M19.1954 0.36792L22.106 5.93536L27.1441 2.18216L27.3509 8.46114L33.5184 7.26554L30.9804 13.0124L37.0559 14.6112L32.2758 18.6878L37.0559 22.7644L30.9804 24.3632L33.5184 30.1101L27.3509 28.9145L27.1441 35.1934L22.106 31.4402L19.1954 37.0077L16.2847 31.4402L11.2467 35.1934L11.0399 28.9145L4.87231 30.1101L7.41034 24.3632L1.33481 22.7644L6.11497 18.6878L1.33481 14.6112L7.41034 13.0124L4.87231 7.26554L11.0399 8.46114L11.2467 2.18216L16.2847 5.93536L19.1954 0.36792Z" fill="#5171FC"/>
<path d="M13.8071 20.1231L16.5216 23.078C17.1584 23.7713 18.082 23.6685 18.6276 22.8436L24.5835 13.8384" stroke="white" stroke-width="1.70477" stroke-linecap="round" stroke-linejoin="round"/>
</svg>
