<svg width="122" height="25" viewBox="0 0 122 25" fill="none" xmlns="http://www.w3.org/2000/svg">
<path d="M11.9865 2.98834C12.2862 2.06601 13.591 2.06601 13.8907 2.98834L15.411 7.66729C15.545 8.07977 15.9294 8.35904 16.3631 8.35904H21.2829C22.2527 8.35904 22.6559 9.60003 21.8713 10.1701L17.8911 13.0618C17.5403 13.3167 17.3934 13.7686 17.5275 14.1811L19.0478 18.86C19.3474 19.7824 18.2918 20.5494 17.5072 19.9793L13.527 17.0876C13.1762 16.8326 12.7011 16.8326 12.3502 17.0876L8.37002 19.9793C7.58544 20.5494 6.52979 19.7824 6.82947 18.86L8.34976 14.1811C8.48378 13.7686 8.33696 13.3167 7.98608 13.0618L4.00593 10.1701C3.22134 9.60003 3.62457 8.35904 4.59436 8.35904H9.5141C9.94781 8.35904 10.3322 8.07977 10.4662 7.66729L11.9865 2.98834Z" fill="#FFBE0B"/>
<path d="M36.0143 2.98834C36.314 2.06601 37.6189 2.06601 37.9186 2.98834L39.4388 7.66729C39.5729 8.07977 39.9572 8.35904 40.391 8.35904H45.3107C46.2805 8.35904 46.6837 9.60003 45.8991 10.1701L41.919 13.0618C41.5681 13.3167 41.4213 13.7686 41.5553 14.1811L43.0756 18.86C43.3753 19.7824 42.3196 20.5494 41.535 19.9793L37.5549 17.0876C37.204 16.8326 36.7289 16.8326 36.378 17.0876L32.3979 19.9793C31.6133 20.5494 30.5576 19.7824 30.8573 18.86L32.3776 14.1811C32.5116 13.7686 32.3648 13.3167 32.0139 13.0618L28.0338 10.1701C27.2492 9.60003 27.6524 8.35904 28.6222 8.35904H33.5419C33.9756 8.35904 34.36 8.07977 34.494 7.66729L36.0143 2.98834Z" fill="#FFBE0B"/>
<path d="M60.0397 2.98834C60.3394 2.06601 61.6443 2.06601 61.9439 2.98834L63.4642 7.66729C63.5983 8.07977 63.9826 8.35904 64.4163 8.35904H69.3361C70.3059 8.35904 70.7091 9.60003 69.9245 10.1701L65.9444 13.0618C65.5935 13.3167 65.4467 13.7686 65.5807 14.1811L67.101 18.86C67.4007 19.7824 66.345 20.5494 65.5604 19.9793L61.5803 17.0876C61.2294 16.8326 60.7543 16.8326 60.4034 17.0876L56.4232 19.9793C55.6387 20.5494 54.583 19.7824 54.8827 18.86L56.403 14.1811C56.537 13.7686 56.3902 13.3167 56.0393 13.0618L52.0591 10.1701C51.2746 9.60003 51.6778 8.35904 52.6476 8.35904H57.5673C58.001 8.35904 58.3854 8.07977 58.5194 7.66729L60.0397 2.98834Z" fill="#FFBE0B"/>
<path d="M84.0671 2.98834C84.3667 2.06601 85.6716 2.06601 85.9713 2.98834L87.4916 7.66729C87.6256 8.07977 88.01 8.35904 88.4437 8.35904H93.3634C94.3332 8.35904 94.7364 9.60003 93.9519 10.1701L89.9717 13.0618C89.6208 13.3167 89.474 13.7686 89.608 14.1811L91.1283 18.86C91.428 19.7824 90.3724 20.5494 89.5878 19.9793L85.6076 17.0876C85.2567 16.8326 84.7816 16.8326 84.4307 17.0876L80.4506 19.9793C79.666 20.5494 78.6104 19.7824 78.91 18.86L80.4303 14.1811C80.5643 13.7686 80.4175 13.3167 80.0666 13.0618L76.0865 10.1701C75.3019 9.60003 75.7051 8.35904 76.6749 8.35904H81.5947C82.0284 8.35904 82.4128 8.07977 82.5468 7.66729L84.0671 2.98834Z" fill="#FFBE0B"/>
<path d="M108.092 2.98834C108.392 2.06601 109.697 2.06601 109.997 2.98834L111.517 7.66729C111.651 8.07977 112.035 8.35904 112.469 8.35904H117.389C118.359 8.35904 118.762 9.60003 117.977 10.1701L113.997 13.0618C113.646 13.3167 113.499 13.7686 113.633 14.1811L115.154 18.86C115.453 19.7824 114.398 20.5494 113.613 19.9793L109.633 17.0876C109.282 16.8326 108.807 16.8326 108.456 17.0876L104.476 19.9793C103.691 20.5494 102.636 19.7824 102.935 18.86L104.456 14.1811C104.59 13.7686 104.443 13.3167 104.092 13.0618L100.112 10.1701C99.3273 9.60003 99.7305 8.35904 100.7 8.35904H105.62C106.054 8.35904 106.438 8.07977 106.572 7.66729L108.092 2.98834Z" fill="#D9D9D9"/>
</svg>
